<svg width="24" height="24" viewBox="0 0 24 24" fill="none" xmlns="http://www.w3.org/2000/svg">
<g clip-path="url(#clip0_4740_14642)">
<path d="M12.0003 24.0006C18.6279 24.0006 24.0006 18.6279 24.0006 12.0003C24.0006 5.37271 18.6279 0 12.0003 0C5.37271 0 0 5.37271 0 12.0003C0 18.6279 5.37271 24.0006 12.0003 24.0006Z" fill="white"/>
<path d="M17.427 7.49218C16.4418 7.03976 15.4013 6.71897 14.3324 6.53809C14.1857 6.79784 14.0543 7.06591 13.9388 7.34095C12.8011 7.17395 11.645 7.17395 10.5072 7.34095C10.4016 7.09104 10.2416 6.77223 10.1137 6.53809C9.042 6.7161 7.99902 7.03699 7.01261 7.49218C5.0507 10.386 4.52053 13.2109 4.78503 15.9984C5.93395 16.8415 7.21715 17.4843 8.58038 17.8996C8.88754 17.4859 9.15924 17.047 9.39258 16.5876C8.94856 16.4214 8.52023 16.2161 8.11267 15.9739C8.21836 15.8986 8.32404 15.8145 8.42389 15.7316C10.8932 16.8603 13.5675 16.8603 16.0064 15.7316C16.1121 15.8157 16.2119 15.8986 16.3176 15.9739C15.9101 16.2162 15.4818 16.4216 15.0377 16.5876C15.2706 17.0463 15.5417 17.4846 15.8482 17.8978C17.2119 17.4837 18.4953 16.8409 19.6435 15.9967C19.9693 12.77 19.1268 9.96732 17.4305 7.49043L17.427 7.49218ZM9.73065 14.2771C8.98793 14.2771 8.38243 13.6033 8.38243 12.7776C8.38243 11.952 8.97334 11.2776 9.73065 11.2776C10.488 11.2776 11.0941 11.9514 11.0789 12.7776C11.0789 13.6033 10.4804 14.2771 9.73065 14.2771ZM14.7078 14.2771C13.9663 14.2771 13.359 13.6033 13.359 12.7776C13.359 11.952 13.9505 11.2776 14.7078 11.2776C15.4651 11.2776 16.0712 11.9514 16.056 12.7776C16.056 13.6033 15.4651 14.2771 14.7061 14.2771H14.7078Z" fill="white"/>
<path d="M17.2271 7.29003C16.2407 6.83744 15.199 6.51666 14.1289 6.33594C13.9825 6.59576 13.8513 6.86383 13.7359 7.1388C12.598 6.97181 11.4417 6.97181 10.3038 7.1388C10.1981 6.88889 10.0381 6.57066 9.91082 6.33594C8.83995 6.51428 7.79778 6.83516 6.81206 7.29003C4.85016 10.1838 4.31998 13.0087 4.58507 15.7963C5.73365 16.6399 7.01695 17.2828 8.38041 17.6974C8.68668 17.2841 8.95778 16.8458 9.19087 16.3872C8.74661 16.2212 8.31807 16.0158 7.91038 15.7735C8.01606 15.6982 8.12175 15.6147 8.2216 15.5318C10.6909 16.6599 13.3657 16.6599 15.8047 15.5318C15.9104 15.6153 16.0096 15.6982 16.1153 15.7735C15.708 16.016 15.2796 16.2214 14.8354 16.3872C15.0685 16.8458 15.3396 17.2841 15.6459 17.6974C17.0098 17.284 18.2933 16.641 19.4412 15.7963C19.767 12.5696 18.925 9.76693 17.2288 7.29003H17.2271ZM9.53011 14.0773C8.78798 14.0773 8.18189 13.4029 8.18189 12.5772C8.18189 11.7516 8.77279 11.0778 9.53011 11.0778C10.2874 11.0778 10.8935 11.7516 10.8783 12.5772C10.8783 13.4029 10.2804 14.0773 9.53011 14.0773ZM14.5079 14.0773C13.7657 14.0773 13.1585 13.4029 13.1585 12.5772C13.1585 11.7516 13.7505 11.0778 14.5079 11.0778C15.2652 11.0778 15.8736 11.7545 15.8561 12.5772C15.8561 13.4029 15.2652 14.0773 14.5079 14.0773Z" fill="#29313C"/>
</g>
<defs>
<clipPath id="clip0_4740_14642">
<rect width="24" height="24" fill="white"/>
</clipPath>
</defs>
</svg>
