<svg width="24" height="24" viewBox="0 0 24 24" fill="none" xmlns="http://www.w3.org/2000/svg">
<path d="M24 12.0002C23.9999 9.70659 23.3426 7.46104 22.1057 5.52949C20.8689 3.59794 19.1044 2.06131 17.0213 1.10157C14.9381 0.141828 12.6236 -0.200808 10.3517 0.114238C8.07984 0.429284 5.94584 1.38881 4.20245 2.87919C2.45906 4.36956 1.17931 6.32835 0.514748 8.52357C-0.14981 10.7188 -0.171331 13.0585 0.452734 15.2656C1.0768 17.4726 2.3203 19.4546 4.03598 20.9768C5.75167 22.499 7.86765 23.4976 10.1333 23.8544V15.4758H7.08089V12.0002H10.128V9.35487C10.128 6.34864 11.92 4.68642 14.6613 4.68642C15.5613 4.69901 16.4591 4.77744 17.3476 4.92109V7.87398H15.8347C14.3431 7.87398 13.8791 8.8002 13.8791 9.74775V12.0002H17.2071L16.6738 15.4686H13.8756V23.8544C16.6979 23.4071 19.2682 21.9675 21.124 19.7945C22.9799 17.6216 23.9997 14.8578 24 12.0002Z" fill="white"/>
</svg>
