<svg width="24" height="24" viewBox="0 0 24 24" fill="none" xmlns="http://www.w3.org/2000/svg">
<g clip-path="url(#clip0_4740_14634)">
<path d="M12 24C18.6274 24 24 18.6274 24 12C24 5.37258 18.6274 0 12 0C5.37258 0 0 5.37258 0 12C0 18.6274 5.37258 24 12 24Z" fill="white"/>
<path d="M12.9281 10.3642C13.1254 10.142 13.2836 9.91624 13.4898 9.72602C13.7824 9.44082 14.1287 9.21663 14.5087 9.06648C14.8887 8.91632 15.2947 8.84319 15.7032 8.85135C16.1739 8.84323 16.6435 8.90007 17.0987 9.02024C18.1405 9.32246 18.7449 10.0389 19.0347 11.0558C19.2268 11.8178 19.3135 12.6026 19.2925 13.3882C19.2925 15.0469 19.2925 16.7038 19.2925 18.366C19.2925 18.5207 19.2498 18.5616 19.097 18.5598C18.2412 18.5527 17.3873 18.5527 16.5352 18.5598C16.3841 18.5598 16.3574 18.5153 16.3574 18.382C16.3574 16.8045 16.3574 15.227 16.3574 13.6496C16.3663 13.2533 16.3196 12.8578 16.2187 12.4745C16.0143 11.7633 15.5076 11.4078 14.7663 11.4451C13.7547 11.4985 13.2267 12.0016 13.0987 13.0309C13.0673 13.2762 13.0519 13.5232 13.0525 13.7705C13.0525 15.3047 13.0525 16.8389 13.0525 18.3731C13.0525 18.526 13.0134 18.5705 12.8569 18.5687C11.9983 18.5687 11.1378 18.5687 10.2774 18.5687C10.1387 18.5687 10.0996 18.5331 10.0996 18.3909C10.0996 15.3545 10.0996 12.3174 10.0996 9.27979C10.0996 9.12868 10.1476 9.10201 10.2898 9.10201C11.1076 9.10912 11.9248 9.10912 12.7414 9.10201C12.8907 9.10201 12.9298 9.15001 12.9192 9.29224C12.9227 9.63713 12.9281 9.99979 12.9281 10.3642Z" fill="#29313C"/>
<path d="M8.24878 13.8347C8.24878 15.3369 8.24878 16.8391 8.24878 18.3414C8.24878 18.5085 8.20789 18.56 8.03545 18.5583C7.18034 18.5476 6.32701 18.5583 5.47368 18.5583C5.33679 18.5583 5.2959 18.5245 5.2959 18.3805C5.2959 15.3369 5.2959 12.2945 5.2959 9.25336C5.2959 9.12714 5.3279 9.07558 5.46123 9.08447C6.32701 9.08447 7.19278 9.08447 8.05856 9.08447C8.22567 9.08447 8.24701 9.14669 8.24701 9.29069C8.24582 10.8054 8.24641 12.32 8.24878 13.8347Z" fill="#29313C"/>
<path d="M8.48398 6.071C8.48574 6.40872 8.38715 6.73936 8.20073 7.02097C8.01431 7.30258 7.74845 7.52248 7.43687 7.65278C7.1253 7.78307 6.78205 7.8179 6.45066 7.75284C6.11926 7.68777 5.81464 7.52575 5.57546 7.28732C5.33628 7.04889 5.1733 6.74479 5.1072 6.4136C5.04109 6.08241 5.07484 5.73904 5.20416 5.42706C5.33348 5.11508 5.55255 4.84853 5.83358 4.66122C6.1146 4.47392 6.44492 4.3743 6.78264 4.375C7.23223 4.37732 7.66281 4.55659 7.98122 4.87399C8.29963 5.1914 8.48024 5.62143 8.48398 6.071Z" fill="#29313C"/>
</g>
<defs>
<clipPath id="clip0_4740_14634">
<rect width="24" height="24" fill="white"/>
</clipPath>
</defs>
</svg>
