<svg width="23" height="22" viewBox="0 0 23 22" fill="none" xmlns="http://www.w3.org/2000/svg">
<path d="M11.9511 20.4398L2.76106 11.2498C1.63521 10.124 1.00272 8.59698 1.00272 7.0048C1.00272 5.41262 1.63521 3.88564 2.76106 2.7598C3.8869 1.63396 5.41387 1.00146 7.00606 1.00146C8.59824 1.00146 10.1252 1.63396 11.2511 2.7598L20.4411 11.9498C21.1916 12.7004 21.6133 13.7183 21.6133 14.7798C21.6133 15.8413 21.1916 16.8592 20.4411 17.6098C19.6905 18.3604 18.6725 18.782 17.6111 18.782C16.5496 18.782 15.5316 18.3604 14.7811 17.6098L5.59106 8.4098C5.21578 8.03452 5.00494 7.52553 5.00494 6.9948C5.00494 6.46407 5.21578 5.95508 5.59106 5.5798C5.96634 5.20452 6.47533 4.99369 7.00606 4.99369C7.53678 4.99369 8.04578 5.20452 8.42106 5.5798L16.9011 14.0698" stroke="white" stroke-width="2" stroke-linecap="round" stroke-linejoin="round"/>
</svg>
