<svg width="24" height="24" viewBox="0 0 24 24" fill="none" xmlns="http://www.w3.org/2000/svg">
<g clip-path="url(#clip0_4740_14631)">
<path d="M12 24C18.6274 24 24 18.6274 24 12C24 5.37258 18.6274 0 12 0C5.37258 0 0 5.37258 0 12C0 18.6274 5.37258 24 12 24Z" fill="white"/>
<path d="M9.57521 18.91C15.4419 18.91 18.6419 14.0549 18.6419 9.84336C18.6419 9.70647 18.6419 9.56958 18.6419 9.43269C19.2652 8.98131 19.8034 8.42269 20.2312 7.78291C19.6495 8.03944 19.0331 8.20838 18.4019 8.28425C19.0671 7.88558 19.5649 7.25888 19.8028 6.52069C19.1776 6.89239 18.4933 7.15397 17.7797 7.29402C17.3424 6.82841 16.7753 6.50491 16.152 6.36546C15.5286 6.22602 14.8778 6.27706 14.2838 6.51197C13.6898 6.74688 13.1801 7.15482 12.8208 7.6829C12.4615 8.21098 12.2691 8.83483 12.2685 9.47358C12.2675 9.7183 12.295 9.96231 12.3503 10.2007C11.0834 10.1372 9.84403 9.80791 8.71264 9.23425C7.58126 8.6606 6.58317 7.85539 5.78321 6.87091C5.37527 7.57239 5.25021 8.40304 5.43355 9.19354C5.61689 9.98403 6.0948 10.6748 6.76988 11.1251C6.26378 11.1097 5.76877 10.9731 5.32632 10.7269C5.3254 10.7405 5.3254 10.7542 5.32632 10.7678C5.32653 11.5035 5.58122 12.2165 6.04717 12.7858C6.51312 13.3551 7.16166 13.7457 7.88278 13.8914C7.41378 14.0187 6.92193 14.0375 6.44455 13.9465C6.64933 14.5788 7.0459 15.1316 7.5792 15.5282C8.1125 15.9249 8.75606 16.1456 9.42054 16.1598C8.29155 17.045 6.89787 17.5252 5.46322 17.5234C5.20952 17.5238 4.95601 17.509 4.7041 17.4789C6.16095 18.4146 7.85623 18.9114 9.58766 18.91" fill="#29313C"/>
</g>
<defs>
<clipPath id="clip0_4740_14631">
<rect width="24" height="24" fill="white"/>
</clipPath>
</defs>
</svg>
