<svg width="122" height="122" viewBox="0 0 122 122" fill="none" xmlns="http://www.w3.org/2000/svg">
<path fill-rule="evenodd" clip-rule="evenodd" d="M61.0016 0C55.1931 0 50.4844 4.70873 50.4844 10.5172V50.4829H10.5172C4.70873 50.4829 0 55.1916 0 61.0001C0 66.8087 4.70873 71.5174 10.5172 71.5174H50.4844V111.483C50.4844 117.291 55.1931 122 61.0016 122C66.8101 122 71.5189 117.291 71.5189 111.483V71.5174H111.483C117.291 71.5174 122 66.8087 122 61.0002C122 55.1916 117.291 50.4829 111.483 50.4829H71.5189V10.5172C71.5189 4.70873 66.8101 0 61.0016 0Z" fill="#48515F"/>
</svg>
