<svg width="115" height="31" viewBox="0 0 115 31" fill="none" xmlns="http://www.w3.org/2000/svg">
<rect width="115" height="31" rx="15.5" fill="#F6465D"/>
<path d="M46.398 20H44.916L40.457 13.253V20H38.975V10.952H40.457L44.916 17.686V10.952H46.398V20ZM54.9091 16.243C54.9091 16.5117 54.8918 16.7543 54.8571 16.971H49.3841C49.4275 17.543 49.6398 18.0023 50.0211 18.349C50.4025 18.6957 50.8705 18.869 51.4251 18.869C52.2225 18.869 52.7858 18.5353 53.1151 17.868H54.7141C54.4975 18.5267 54.1031 19.0683 53.5311 19.493C52.9678 19.909 52.2658 20.117 51.4251 20.117C50.7405 20.117 50.1251 19.9653 49.5791 19.662C49.0418 19.35 48.6171 18.9167 48.3051 18.362C48.0018 17.7987 47.8501 17.1487 47.8501 16.412C47.8501 15.6753 47.9975 15.0297 48.2921 14.475C48.5955 13.9117 49.0158 13.4783 49.5531 13.175C50.0991 12.8717 50.7231 12.72 51.4251 12.72C52.1011 12.72 52.7035 12.8673 53.2321 13.162C53.7608 13.4567 54.1725 13.8727 54.4671 14.41C54.7618 14.9387 54.9091 15.5497 54.9091 16.243ZM53.3621 15.775C53.3535 15.229 53.1585 14.7913 52.7771 14.462C52.3958 14.1327 51.9235 13.968 51.3601 13.968C50.8488 13.968 50.4111 14.1327 50.0471 14.462C49.6831 14.7827 49.4665 15.2203 49.3971 15.775H53.3621ZM59.2536 12.72C59.8082 12.72 60.2979 12.8327 60.7226 13.058C61.1559 13.2747 61.4939 13.5477 61.7366 13.877V12.837H63.2316V20.117C63.2316 20.7757 63.0929 21.3607 62.8156 21.872C62.5382 22.392 62.1352 22.7993 61.6066 23.094C61.0866 23.3887 60.4626 23.536 59.7346 23.536C58.7639 23.536 57.9579 23.3063 57.3166 22.847C56.6752 22.3963 56.3112 21.781 56.2246 21.001H57.6936C57.8062 21.3737 58.0446 21.6727 58.4086 21.898C58.7812 22.132 59.2232 22.249 59.7346 22.249C60.3326 22.249 60.8136 22.067 61.1776 21.703C61.5502 21.339 61.7366 20.8103 61.7366 20.117V18.921C61.4852 19.259 61.1429 19.545 60.7096 19.779C60.2849 20.0043 59.7996 20.117 59.2536 20.117C58.6296 20.117 58.0576 19.961 57.5376 19.649C57.0262 19.3283 56.6189 18.8863 56.3156 18.323C56.0209 17.751 55.8736 17.1053 55.8736 16.386C55.8736 15.6667 56.0209 15.0297 56.3156 14.475C56.6189 13.9203 57.0262 13.4913 57.5376 13.188C58.0576 12.876 58.6296 12.72 59.2536 12.72ZM61.7366 16.412C61.7366 15.918 61.6326 15.489 61.4246 15.125C61.2252 14.761 60.9609 14.4837 60.6316 14.293C60.3022 14.1023 59.9469 14.007 59.5656 14.007C59.1842 14.007 58.8289 14.1023 58.4996 14.293C58.1702 14.475 57.9016 14.748 57.6936 15.112C57.4942 15.4673 57.3946 15.892 57.3946 16.386C57.3946 16.88 57.4942 17.3133 57.6936 17.686C57.9016 18.0587 58.1702 18.3447 58.4996 18.544C58.8376 18.7347 59.1929 18.83 59.5656 18.83C59.9469 18.83 60.3022 18.7347 60.6316 18.544C60.9609 18.3533 61.2252 18.076 61.4246 17.712C61.6326 17.3393 61.7366 16.906 61.7366 16.412ZM64.6841 16.386C64.6841 15.6667 64.8315 15.0297 65.1261 14.475C65.4295 13.9203 65.8368 13.4913 66.3481 13.188C66.8681 12.876 67.4401 12.72 68.0641 12.72C68.6275 12.72 69.1171 12.8327 69.5331 13.058C69.9578 13.2747 70.2958 13.5477 70.5471 13.877V12.837H72.0421V20H70.5471V18.934C70.2958 19.272 69.9535 19.5537 69.5201 19.779C69.0868 20.0043 68.5928 20.117 68.0381 20.117C67.4228 20.117 66.8595 19.961 66.3481 19.649C65.8368 19.3283 65.4295 18.8863 65.1261 18.323C64.8315 17.751 64.6841 17.1053 64.6841 16.386ZM70.5471 16.412C70.5471 15.918 70.4431 15.489 70.2351 15.125C70.0358 14.761 69.7715 14.4837 69.4421 14.293C69.1128 14.1023 68.7575 14.007 68.3761 14.007C67.9948 14.007 67.6395 14.1023 67.3101 14.293C66.9808 14.475 66.7121 14.748 66.5041 15.112C66.3048 15.4673 66.2051 15.892 66.2051 16.386C66.2051 16.88 66.3048 17.3133 66.5041 17.686C66.7121 18.0587 66.9808 18.3447 67.3101 18.544C67.6481 18.7347 68.0035 18.83 68.3761 18.83C68.7575 18.83 69.1128 18.7347 69.4421 18.544C69.7715 18.3533 70.0358 18.076 70.2351 17.712C70.4431 17.3393 70.5471 16.906 70.5471 16.412ZM75.7177 14.046V18.011C75.7177 18.2797 75.7783 18.4747 75.8997 18.596C76.0297 18.7087 76.2463 18.765 76.5497 18.765H77.4597V20H76.2897C75.6223 20 75.111 19.844 74.7557 19.532C74.4003 19.22 74.2227 18.713 74.2227 18.011V14.046H73.3777V12.837H74.2227V11.056H75.7177V12.837H77.4597V14.046H75.7177ZM79.5796 11.888C79.3109 11.888 79.0856 11.797 78.9036 11.615C78.7216 11.433 78.6306 11.2077 78.6306 10.939C78.6306 10.6703 78.7216 10.445 78.9036 10.263C79.0856 10.081 79.3109 9.99 79.5796 9.99C79.8396 9.99 80.0606 10.081 80.2426 10.263C80.4246 10.445 80.5156 10.6703 80.5156 10.939C80.5156 11.2077 80.4246 11.433 80.2426 11.615C80.0606 11.797 79.8396 11.888 79.5796 11.888ZM80.3076 12.837V20H78.8256V12.837H80.3076ZM85.0223 18.674L87.0503 12.837H88.6233L85.8933 20H84.1253L81.4083 12.837H82.9943L85.0223 18.674ZM96.3086 16.243C96.3086 16.5117 96.2912 16.7543 96.2566 16.971H90.7836C90.8269 17.543 91.0392 18.0023 91.4206 18.349C91.8019 18.6957 92.2699 18.869 92.8246 18.869C93.6219 18.869 94.1852 18.5353 94.5146 17.868H96.1136C95.8969 18.5267 95.5026 19.0683 94.9306 19.493C94.3672 19.909 93.6652 20.117 92.8246 20.117C92.1399 20.117 91.5246 19.9653 90.9786 19.662C90.4412 19.35 90.0166 18.9167 89.7046 18.362C89.4012 17.7987 89.2496 17.1487 89.2496 16.412C89.2496 15.6753 89.3969 15.0297 89.6916 14.475C89.9949 13.9117 90.4152 13.4783 90.9526 13.175C91.4986 12.8717 92.1226 12.72 92.8246 12.72C93.5006 12.72 94.1029 12.8673 94.6316 13.162C95.1602 13.4567 95.5719 13.8727 95.8666 14.41C96.1612 14.9387 96.3086 15.5497 96.3086 16.243ZM94.7616 15.775C94.7529 15.229 94.5579 14.7913 94.1766 14.462C93.7952 14.1327 93.3229 13.968 92.7596 13.968C92.2482 13.968 91.8106 14.1327 91.4466 14.462C91.0826 14.7827 90.8659 15.2203 90.7966 15.775H94.7616Z" fill="white"/>
<circle cx="16.5" cy="15.5" r="12.5" fill="#D9D9D9"/>
<g clip-path="url(#clip0_3978_15147)">
<path d="M24.873 15.6755V15.9209C24.873 16.312 24.7185 16.687 24.4435 16.9635C24.1685 17.24 23.7955 17.3954 23.4065 17.3954H19.988C20.056 17.6667 20.2566 18.3509 20.659 18.8109C21.1717 19.4007 21.8005 21.0345 21.4509 22.4677C21.1013 23.9009 20.2168 24.4801 19.7053 24.059C19.1938 23.6379 19.2161 21.5311 18.0992 20.4777C16.9824 19.4243 15.7529 17.2928 15.2133 16.9908H12.6758V8.56486H14.7945C14.7945 8.56486 15.3071 7.97506 17.0762 7.97506C17.1138 7.97506 16.9789 7.98332 22.4598 7.98332C23.7773 7.98332 24.2195 9.66897 23.4828 10.1727C24.2055 10.5997 24.5011 11.6271 23.7925 12.1579C25.0982 12.9719 24.7885 14.2588 24.1691 14.5738C24.371 14.6807 24.5419 14.8384 24.6653 15.0315C24.7886 15.2245 24.8602 15.4464 24.873 15.6755Z" fill="#F6465D"/>
<path d="M10.7805 17.0977H8.42722C8.10714 17.0977 7.84766 16.7906 7.84766 16.4118V9.0025C7.84766 8.62372 8.10714 8.31666 8.42722 8.31666H10.7805C11.1006 8.31666 11.3601 8.62372 11.3601 9.0025V16.4118C11.3601 16.7906 11.1006 17.0977 10.7805 17.0977Z" fill="#F6465D"/>
</g>
<defs>
<clipPath id="clip0_3978_15147">
<rect width="19.3182" height="17.562" fill="white" transform="matrix(1 0 0 -1 7.41016 24.5615)"/>
</clipPath>
</defs>
</svg>
