<svg width="26" height="26" viewBox="0 0 26 26" fill="none" xmlns="http://www.w3.org/2000/svg">
<g clip-path="url(#clip0_3457_16143)">
<path d="M13.0069 26.0177C10.4333 26.0212 7.91647 25.2612 5.77485 23.8339C3.63324 22.4066 1.96303 20.3762 0.975707 17.9994C-0.0116122 15.6227 -0.271637 13.0065 0.228314 10.4818C0.728265 7.95719 1.96564 5.63755 3.78425 3.81646C5.60287 1.99537 7.92081 0.754628 10.4448 0.251245C12.9687 -0.252139 15.5853 0.00451747 17.9633 0.988604C20.3414 1.97269 22.3742 3.63999 23.8044 5.77966C25.2346 7.91933 25.998 10.4353 25.998 13.0089C25.9934 16.4546 24.6238 19.758 22.189 22.1961C19.7542 24.6342 16.4526 26.0084 13.0069 26.0177ZM13.0069 1.85585C10.8003 1.85235 8.64217 2.50355 6.80575 3.72692C4.96934 4.9503 3.5372 6.69093 2.69035 8.72856C1.8435 10.7662 1.62012 13.0092 2.04847 15.1738C2.47681 17.3385 3.53766 19.3274 5.09672 20.8889C6.65578 22.4504 8.64286 23.5144 10.8068 23.9462C12.9707 24.378 15.2143 24.1582 17.2533 23.3146C19.2922 22.471 21.035 21.0414 22.2613 19.2069C23.4876 17.3725 24.1423 15.2155 24.1423 13.0089C24.1376 10.0555 22.9635 7.22396 20.8768 5.13389C18.79 3.04382 15.9604 1.86519 13.0069 1.85585Z" fill="#2EBD85"/>
<path d="M11.1365 17.6573C11.0141 17.6561 10.8934 17.6305 10.7811 17.5819C10.6688 17.5334 10.5672 17.4629 10.4825 17.3746L6.77078 13.6629C6.6849 13.577 6.61682 13.4749 6.57034 13.3627C6.52386 13.2505 6.5 13.1303 6.5 13.0089C6.5 12.8874 6.52386 12.7671 6.57034 12.6549C6.61682 12.5427 6.6849 12.4407 6.77078 12.3548C6.85666 12.2689 6.95869 12.2009 7.0709 12.1544C7.18311 12.1079 7.30329 12.0839 7.42475 12.0839C7.5462 12.0839 7.6666 12.1079 7.77881 12.1544C7.89102 12.2009 7.99283 12.2689 8.07872 12.3548L11.1365 15.4127L17.9238 8.62541C18.0988 8.45482 18.3335 8.35938 18.5778 8.35938C18.8222 8.35937 19.0568 8.45482 19.2318 8.62541C19.3189 8.71241 19.3879 8.81579 19.435 8.92952C19.4822 9.04325 19.5064 9.1651 19.5064 9.28822C19.5064 9.41134 19.4822 9.5333 19.435 9.64703C19.3879 9.76076 19.3189 9.86403 19.2318 9.95104L11.7906 17.3746C11.7066 17.4637 11.6051 17.5347 11.4927 17.5833C11.3802 17.6319 11.259 17.6571 11.1365 17.6573Z" fill="#2EBD85"/>
</g>
<defs>
<clipPath id="clip0_3457_16143">
<rect width="26" height="26" fill="white"/>
</clipPath>
</defs>
</svg>
