<svg width="26" height="26" viewBox="0 0 26 26" fill="none" xmlns="http://www.w3.org/2000/svg">
<g clip-path="url(#clip0_3994_15171)">
<path d="M13.0089 26.0177C10.4352 26.0212 7.91842 25.2612 5.77681 23.8339C3.63519 22.4066 1.96498 20.3762 0.97766 17.9994C-0.00965906 15.6227 -0.269683 13.0065 0.230268 10.4818C0.730219 7.95719 1.96759 5.63755 3.78621 3.81646C5.60482 1.99537 7.92277 0.754628 10.4467 0.251245C12.9707 -0.252139 15.5872 0.00451747 17.9653 0.988604C20.3434 1.97269 22.3761 3.63999 23.8064 5.77966C25.2366 7.91933 26 10.4353 26 13.0089C25.9953 16.4546 24.6258 19.758 22.191 22.1961C19.7562 24.6342 16.4545 26.0084 13.0089 26.0177ZM13.0089 1.85585C10.8023 1.85235 8.64413 2.50355 6.80771 3.72692C4.97129 4.9503 3.53916 6.69093 2.6923 8.72856C1.84545 10.7662 1.62208 13.0092 2.05042 15.1738C2.47876 17.3385 3.53961 19.3274 5.09867 20.8889C6.65774 22.4504 8.64482 23.5144 10.8088 23.9462C12.9727 24.378 15.2163 24.1582 17.2552 23.3146C19.2942 22.471 21.037 21.0414 22.2632 19.2069C23.4895 17.3725 24.1442 15.2155 24.1442 13.0089C24.1396 10.0555 22.9655 7.22396 20.8787 5.13389C18.7919 3.04382 15.9623 1.86519 13.0089 1.85585Z" fill="#F6465D"/>
<path d="M11.1345 17.6573C11.0122 17.6561 10.8915 17.6305 10.7792 17.5819C10.6669 17.5334 10.5652 17.4629 10.4805 17.3746L6.76883 13.6629C6.68294 13.577 6.61486 13.4749 6.56838 13.3627C6.52191 13.2505 6.49805 13.1303 6.49805 13.0089C6.49805 12.8874 6.52191 12.7671 6.56838 12.6549C6.61486 12.5427 6.68294 12.4407 6.76883 12.3548C6.85471 12.2689 6.95674 12.2009 7.06895 12.1544C7.18116 12.1079 7.30134 12.0839 7.42279 12.0839C7.54425 12.0839 7.66465 12.1079 7.77686 12.1544C7.88907 12.2009 7.99088 12.2689 8.07676 12.3548L11.1345 15.4127L17.9219 8.62541C18.0968 8.45482 18.3315 8.35938 18.5759 8.35938C18.8202 8.35937 19.0549 8.45482 19.2298 8.62541C19.3169 8.71241 19.3859 8.81579 19.4331 8.92952C19.4802 9.04325 19.5045 9.1651 19.5045 9.28822C19.5045 9.41134 19.4802 9.5333 19.4331 9.64703C19.3859 9.76076 19.3169 9.86403 19.2298 9.95104L11.7887 17.3746C11.7046 17.4637 11.6032 17.5347 11.4907 17.5833C11.3783 17.6319 11.257 17.6571 11.1345 17.6573Z" fill="#F6465D"/>
</g>
<defs>
<clipPath id="clip0_3994_15171">
<rect width="26" height="26" fill="white"/>
</clipPath>
</defs>
</svg>
