<svg width="24" height="18" viewBox="0 0 24 18" fill="none" xmlns="http://www.w3.org/2000/svg">
<path d="M4.12421 11.8963H5.45126V13.2796C5.45126 13.6467 5.73883 13.951 6.10126 13.951C6.46387 13.951 6.75125 13.6467 6.75125 13.2796V11.8963H8.0791C8.44169 11.8963 8.72909 11.5921 8.72909 11.2249C8.72909 10.8577 8.44169 10.5535 8.0791 10.5535H6.75125V9.17099C6.75125 8.80377 6.46385 8.49961 6.10126 8.49961C5.73884 8.49961 5.45126 8.80375 5.45126 9.17099V10.5535H4.12421C3.7618 10.5535 3.47422 10.8577 3.47422 11.2249C3.47422 11.5921 3.7618 11.8963 4.12421 11.8963Z" fill="#0095C8" stroke="#0095C8" stroke-width="0.2"/>
<path d="M16.4082 10.5385C16.2154 10.3383 15.9532 10.2252 15.6791 10.2252C15.405 10.2252 15.1428 10.3383 14.95 10.5385C14.7575 10.7384 14.65 11.0088 14.65 11.29C14.65 11.5713 14.7575 11.8416 14.95 12.0416L14.9501 12.0417C15.1428 12.2417 15.405 12.3548 15.6791 12.3548C15.9532 12.3548 16.2154 12.2417 16.4082 12.0417L16.4082 12.0416C16.6007 11.8416 16.7082 11.5713 16.7082 11.29C16.7082 11.0089 16.6007 10.7384 16.4082 10.5385ZM16.4082 10.5385L16.3362 10.6079L16.4082 10.5385Z" fill="#0095C8" stroke="#0095C8" stroke-width="0.2"/>
<path d="M17.6558 10.2094C18.2276 10.2094 18.6849 9.72899 18.6849 9.14465C18.6849 8.56014 18.2276 8.07969 17.6558 8.07969C17.0839 8.07969 16.6266 8.56014 16.6266 9.14465C16.6266 9.72902 17.0839 10.2094 17.6558 10.2094Z" fill="#0095C8" stroke="#0095C8" stroke-width="0.2"/>
<path d="M17.5817 14.3699L17.5808 14.3691C17.3209 14.3588 17.0745 14.2469 16.8912 14.0564M17.5817 14.3699L16.8916 12.5535C16.6989 12.7534 16.5914 13.0238 16.5914 13.3051C16.5914 13.5862 16.6987 13.8565 16.8912 14.0564M17.5817 14.3699L17.6198 14.3699M17.5817 14.3699L17.6198 14.3699M16.8912 14.0564L16.9633 13.9871L16.8913 14.0564C16.8913 14.0564 16.8912 14.0564 16.8912 14.0564ZM17.6209 12.2403C17.6209 12.2403 17.6209 12.2403 17.6208 12.2403C17.3466 12.2402 17.0844 12.3533 16.8916 12.5534L18.5496 13.3056C18.5498 13.0497 18.4521 12.8042 18.2777 12.6232C18.1036 12.4421 17.8672 12.3403 17.6208 12.3403L17.6209 12.2403ZM17.6209 12.2403C17.895 12.2404 18.1572 12.3537 18.3498 12.5538L17.6209 12.2403ZM18.3491 14.0572C18.3491 14.0572 18.3491 14.0572 18.3491 14.0572L18.2771 13.9878L18.3491 14.0572ZM18.3491 14.0572C18.1562 14.2572 17.8939 14.3701 17.6198 14.3699M18.3491 14.0572L17.6198 14.3699" fill="#0095C8" stroke="#0095C8" stroke-width="0.2"/>
<path d="M19.5971 12.2244C20.169 12.2244 20.6262 11.7441 20.6262 11.1596C20.6262 10.5751 20.169 10.0948 19.5971 10.0948C19.0252 10.0948 18.568 10.5751 18.568 11.1596C18.568 11.7441 19.0252 12.2244 19.5971 12.2244Z" fill="#0095C8" stroke="#0095C8" stroke-width="0.2"/>
<path d="M14.5907 0.272705C14.8945 0.272705 15.1407 0.528465 15.1407 0.844084C15.1407 1.15953 14.8945 1.41546 14.5907 1.41546M14.5907 0.272705L12.5477 3.5379C12.5484 2.97518 12.7638 2.43563 13.1468 2.03769C13.5298 1.63977 14.049 1.41598 14.5907 1.41546M14.5907 0.272705C13.7575 0.273555 12.9586 0.617914 12.3693 1.2301L14.5907 0.272705ZM14.5907 1.41546V1.51546M14.5907 1.41546L14.5908 1.51546C14.5908 1.51546 14.5907 1.51546 14.5907 1.51546M12.6477 3.53802V4.63168H17.2409H17.241V4.73168C19.3134 4.72998 21.252 5.79481 22.4174 7.57512C23.5827 9.35538 23.8237 11.6198 23.0604 13.6215C22.2972 15.623 20.6292 17.1018 18.6064 17.5701C16.5835 18.0385 14.4688 17.4353 12.9598 15.9597L12.6477 3.53802ZM12.6477 3.53802C12.6483 3.00057 12.8541 2.48598 13.2189 2.10704C13.5835 1.72826 14.0768 1.51598 14.5907 1.51546M12.6477 3.53802L12.9192 16.0597H11.0762C9.92902 17.1734 8.42255 17.802 6.85239 17.8229L6.8523 17.8272H6.75443C4.48239 17.8272 2.3848 16.5679 1.25047 14.527L1.33788 14.4784L1.25047 14.527C0.116511 12.4864 0.116511 9.97257 1.25047 7.93198C2.38463 5.89101 4.48231 4.63168 6.75443 4.63168H11.3477V3.5379V3.53779C11.3487 2.64675 11.6898 1.79191 12.2972 1.16075L12.2972 1.16075C12.9049 0.529445 13.7297 0.173584 14.5906 0.172705L14.5907 0.172705C14.9533 0.172705 15.2407 0.476866 15.2407 0.844084C15.2407 1.21111 14.9533 1.51546 14.5907 1.51546M17.1411 5.97048H6.80124L6.80087 5.97092L6.75413 5.97091C5.06512 5.97057 3.48618 6.84793 2.54817 8.31104L2.46792 8.25959L2.54817 8.31105C1.61001 9.77428 1.43818 11.6289 2.09091 13.2518C2.7436 14.8745 4.13328 16.0488 5.79175 16.383L5.772 16.481L5.79176 16.383C7.44975 16.7172 9.15987 16.1682 10.3483 14.9179C10.4701 14.7896 10.6373 14.7167 10.8125 14.7169M17.1411 5.97048L10.8124 14.8169M17.1411 5.97048V5.9707L17.2411 5.97065C18.9307 5.96981 20.5103 6.84686 21.4491 8.31031C22.3878 9.77408 22.56 11.6293 21.9069 13.2528L21.9997 13.2901L21.9069 13.2528C21.2541 14.8762 19.8639 16.0506 18.2048 16.3847C16.5461 16.7187 14.8354 16.1691 13.6473 14.9179C13.5256 14.7896 13.3584 14.7167 13.1832 14.7169M17.1411 5.97048L13.1833 14.8169M10.8125 14.7169L10.8124 14.8169M10.8125 14.7169H10.8124V14.8169M10.8125 14.7169H13.1832M10.8124 14.8169H13.1833M13.1832 14.7169L13.1833 14.8169M13.1832 14.7169H13.1833V14.8169" fill="#0095C8" stroke="#0095C8" stroke-width="0.2"/>
</svg>
