<svg width="22" height="24" viewBox="0 0 22 24" fill="none" xmlns="http://www.w3.org/2000/svg">
<path d="M17.1245 7.44981C17.1245 5.73922 16.445 4.09868 15.2354 2.88911C14.0259 1.67953 12.3853 1 10.6747 1C8.96412 1 7.32359 1.67953 6.11401 2.88911C4.90444 4.09868 4.22491 5.73922 4.22491 7.44981C4.22491 14.9746 1 17.1245 1 17.1245H20.3494C20.3494 17.1245 17.1245 14.9746 17.1245 7.44981Z" stroke="#717A8B" stroke-width="2" stroke-linecap="round" stroke-linejoin="round"/>
<path d="M12.5358 21.4243C12.3468 21.7501 12.0755 22.0205 11.7492 22.2085C11.4228 22.3965 11.0527 22.4955 10.6761 22.4955C10.2995 22.4955 9.92942 22.3965 9.60304 22.2085C9.27666 22.0205 9.0054 21.7501 8.81641 21.4243" stroke="#717A8B" stroke-width="2" stroke-linecap="round" stroke-linejoin="round"/>
</svg>
