<svg width="22" height="22" viewBox="0 0 22 22" fill="none" xmlns="http://www.w3.org/2000/svg">
<g clip-path="url(#clip0_4849_21142)">
<path d="M10.8992 18.6C15.1518 18.6 18.5992 15.1525 18.5992 10.9C18.5992 6.64736 15.1518 3.19995 10.8992 3.19995C6.64663 3.19995 3.19922 6.64736 3.19922 10.9C3.19922 15.1525 6.64663 18.6 10.8992 18.6Z" fill="#717A8B"/>
<path d="M21.7618 13.5199L20.4217 10.9099L21.7618 8.28991C21.8092 8.19687 21.8213 8.08973 21.7955 7.98852C21.7697 7.88731 21.7081 7.7989 21.6219 7.73986L19.2518 6.26989V2.96991C19.2535 2.88612 19.2294 2.8038 19.1829 2.73407C19.1365 2.66434 19.0698 2.61053 18.9918 2.57989C18.9166 2.5469 18.833 2.53785 18.7525 2.55395C18.672 2.57005 18.5985 2.61055 18.5418 2.66992L18.3719 2.82989L15.6219 2.68988L14.0218 0.219905C13.9661 0.132742 13.8795 0.0698447 13.7794 0.0438798C13.6792 0.017915 13.5728 0.0307879 13.4818 0.0798906L10.8619 1.41992L8.24179 0.0798906C8.15072 0.0307879 8.04457 0.017915 7.94442 0.0438798C7.84427 0.0698447 7.75749 0.132742 7.70175 0.219905L6.10189 2.68988L3.16171 2.8399C3.05818 2.84493 2.96039 2.88898 2.88803 2.96319C2.81567 3.03741 2.77422 3.13624 2.77182 3.23986L2.62191 6.17987L0.151698 7.76989C0.0655515 7.82893 0.00387642 7.91728 -0.0218859 8.01849C-0.0476482 8.1197 -0.0356292 8.22684 0.0118055 8.31988L1.35189 10.9399L0.0118055 13.5499C-0.0356292 13.643 -0.0476482 13.75 -0.0218859 13.8513C0.00387642 13.9525 0.0655515 14.0409 0.151698 14.0999L2.62191 15.6899L2.77182 18.6299C2.77422 18.7335 2.81567 18.8324 2.88803 18.9066C2.96039 18.9808 3.05818 19.0249 3.16171 19.0299L6.10189 19.1799L7.70175 21.6499C7.75749 21.7371 7.84427 21.7999 7.94442 21.8259C8.04457 21.8518 8.15072 21.839 8.24179 21.7899L10.8619 20.4499L13.4818 21.7899C13.5444 21.8034 13.6091 21.8034 13.6717 21.7899C13.7412 21.7897 13.8096 21.7722 13.8707 21.739C13.9318 21.7058 13.9838 21.6581 14.0218 21.5999L15.6219 19.1299L18.5619 18.9799C18.6671 18.9774 18.7674 18.9344 18.8419 18.8599C18.9164 18.7854 18.9592 18.6852 18.9618 18.5799L19.1119 15.6399L21.5819 14.0499C21.6702 13.9976 21.7369 13.9154 21.7699 13.8182C21.8029 13.721 21.8 13.6152 21.7618 13.5199ZM18.4517 3.94989V6.11987L10.9017 13.6699L7.30184 10.0699L8.39169 8.97991L10.6119 11.1999C10.6497 11.2384 10.6946 11.2689 10.7445 11.2895C10.7943 11.3102 10.8478 11.3205 10.9017 11.3199C10.9572 11.3212 11.0125 11.3113 11.0641 11.2907C11.1156 11.2701 11.1625 11.2392 11.2017 11.1999L18.4517 3.94989ZM18.5118 15.0799C18.4552 15.1148 18.4083 15.1632 18.3751 15.2208C18.3419 15.2784 18.3236 15.3434 18.3219 15.4099L18.1817 18.1799L15.4117 18.3199C15.3446 18.3248 15.2795 18.3443 15.2208 18.3771C15.162 18.41 15.1112 18.4553 15.0719 18.5099L13.5719 20.8399L11.0919 19.5799C11.033 19.55 10.9677 19.5345 10.9017 19.5345C10.8357 19.5345 10.7706 19.55 10.7118 19.5799L8.24179 20.8399L6.73178 18.5099C6.69451 18.4555 6.64558 18.4103 6.58847 18.3774C6.53135 18.3445 6.46742 18.3248 6.4017 18.3199L3.63168 18.1799L3.49179 15.4099C3.48835 15.3438 3.46938 15.2794 3.43637 15.2221C3.40335 15.1648 3.35727 15.116 3.30184 15.0799L0.971766 13.5699L2.23178 11.0999C2.26103 11.0391 2.27621 10.9724 2.27621 10.9049C2.27621 10.8374 2.26103 10.7707 2.23178 10.7099L0.971766 8.23986L3.30184 6.72992C3.35727 6.69377 3.40335 6.64499 3.43637 6.58764C3.46938 6.53029 3.48835 6.46598 3.49179 6.3999L3.63168 3.62988L6.4017 3.48986C6.46742 3.48493 6.53135 3.46532 6.58847 3.43243C6.64558 3.39954 6.69451 3.35429 6.73178 3.29992L8.24179 0.969905L10.7118 2.22991C10.7706 2.25978 10.8357 2.27533 10.9017 2.27533C10.9677 2.27533 11.033 2.25978 11.0919 2.22991L13.5719 0.969905L15.0719 3.29992C15.1112 3.35453 15.162 3.39984 15.2208 3.43267C15.2795 3.4655 15.3446 3.48499 15.4117 3.48986L17.6119 3.59991L10.9017 10.3099L8.68173 8.0899C8.60313 8.01234 8.49723 7.96887 8.38681 7.96887C8.27638 7.96887 8.17048 8.01234 8.09188 8.0899L6.41171 9.76989C6.33415 9.84849 6.29086 9.95445 6.29086 10.0649C6.29086 10.1753 6.33415 10.2813 6.41171 10.3599L10.6119 14.5599C10.6497 14.5984 10.6946 14.6289 10.7445 14.6495C10.7943 14.6702 10.8478 14.6804 10.9017 14.6799C10.9572 14.6812 11.0125 14.6713 11.0641 14.6507C11.1156 14.6301 11.1625 14.5992 11.2017 14.5599L18.8219 6.93988L20.8219 8.23986L19.5619 10.7099C19.5276 10.7692 19.5096 10.8364 19.5096 10.9049C19.5096 10.9734 19.5276 11.0406 19.5619 11.0999L20.8219 13.5699L18.5118 15.0799Z" fill="white"/>
</g>
<defs>
<clipPath id="clip0_4849_21142">
<rect width="21.81" height="21.81" fill="white"/>
</clipPath>
</defs>
</svg>
