<svg width="31" height="30" viewBox="0 0 31 30" fill="none" xmlns="http://www.w3.org/2000/svg">
<path d="M23.0653 26.2901V24.4353C23.0653 23.4514 22.6744 22.5078 21.9787 21.8121C21.283 21.1164 20.3395 20.7256 19.3556 20.7256H11.9362C10.9524 20.7256 10.0088 21.1164 9.3131 21.8121C8.6174 22.5078 8.22656 23.4514 8.22656 24.4353V26.2901" stroke="#717A8B" stroke-width="2" stroke-linecap="round" stroke-linejoin="round"/>
<path d="M15.6472 17.016C17.696 17.016 19.3569 15.3552 19.3569 13.3064C19.3569 11.2576 17.696 9.59668 15.6472 9.59668C13.5984 9.59668 11.9375 11.2576 11.9375 13.3064C11.9375 15.3552 13.5984 17.016 15.6472 17.016Z" stroke="#717A8B" stroke-width="2" stroke-linecap="round" stroke-linejoin="round"/>
<circle cx="15.7266" cy="15" r="14" stroke="#717A8B" stroke-width="2"/>
</svg>
