<svg width="130" height="132" viewBox="0 0 130 132" fill="none" xmlns="http://www.w3.org/2000/svg">
<circle cx="65" cy="67" r="64.5" stroke="#2EBD85" stroke-dasharray="2 2"/>
<circle cx="65" cy="67" r="50" fill="#2EBD85"/>
<path d="M70.184 35.84L69.04 78.52H60.68L59.536 35.84H70.184ZM65.168 97.616C63.3493 97.616 61.824 97 60.592 95.768C59.36 94.536 58.744 93.0107 58.744 91.192C58.744 89.3733 59.36 87.848 60.592 86.616C61.824 85.384 63.3493 84.768 65.168 84.768C66.928 84.768 68.424 85.384 69.656 86.616C70.888 87.848 71.504 89.3733 71.504 91.192C71.504 93.0107 70.888 94.536 69.656 95.768C68.424 97 66.928 97.616 65.168 97.616Z" fill="white"/>
</svg>
