<svg width="24" height="24" viewBox="0 0 24 24" fill="none" xmlns="http://www.w3.org/2000/svg">
<g clip-path="url(#clip0_4740_14639)">
<path d="M12 24C18.6274 24 24 18.6274 24 12C24 5.37258 18.6274 0 12 0C5.37258 0 0 5.37258 0 12C0 18.6274 5.37258 24 12 24Z" fill="white"/>
<path d="M17.8399 7.12515C17.8303 7.07865 17.809 7.03538 17.7778 6.99956C17.7467 6.96375 17.7068 6.93658 17.6621 6.9207C17.4936 6.88803 17.3195 6.90031 17.1572 6.95627C17.1572 6.95627 5.94298 10.9883 5.3012 11.4345C5.16431 11.5305 5.12342 11.5874 5.09498 11.6514C4.98475 11.9696 5.32964 12.11 5.32964 12.11L8.22031 13.0523C8.2682 13.0639 8.31819 13.0639 8.36609 13.0523C9.02386 12.6363 14.9812 8.87448 15.3261 8.74826C15.3794 8.73226 15.4203 8.74826 15.4096 8.78737C15.271 9.27092 10.0959 13.8701 10.0959 13.8701C10.0833 13.8866 10.0725 13.9045 10.0639 13.9234L9.79542 16.7909C9.79542 16.7909 9.68164 17.6691 10.5599 16.7909C11.1803 16.1705 11.7794 15.6514 12.0799 15.4007C13.0736 16.0869 14.1439 16.846 14.6043 17.2425C14.6821 17.3173 14.7741 17.3758 14.8749 17.4146C14.9756 17.4533 15.0831 17.4716 15.191 17.4683C15.6283 17.4523 15.751 16.9705 15.751 16.9705C15.751 16.9705 17.7954 8.74471 17.863 7.64249C17.863 7.53582 17.879 7.46471 17.879 7.39182C17.88 7.30143 17.8668 7.21143 17.8399 7.12515Z" fill="#29313C"/>
</g>
<defs>
<clipPath id="clip0_4740_14639">
<rect width="24" height="24" fill="white"/>
</clipPath>
</defs>
</svg>
