<svg width="115" height="31" viewBox="0 0 115 31" fill="none" xmlns="http://www.w3.org/2000/svg">
<rect width="115" height="31" rx="15.5" fill="#2EBD85"/>
<path d="M45.293 13.656C45.293 14.1153 45.1847 14.5487 44.968 14.956C44.7513 15.3633 44.4047 15.697 43.928 15.957C43.4513 16.2083 42.8403 16.334 42.095 16.334H40.457V20H38.975V10.965H42.095C42.7883 10.965 43.3733 11.0863 43.85 11.329C44.3353 11.563 44.695 11.8837 44.929 12.291C45.1717 12.6983 45.293 13.1533 45.293 13.656ZM42.095 15.125C42.6583 15.125 43.0787 14.9993 43.356 14.748C43.6333 14.488 43.772 14.124 43.772 13.656C43.772 12.668 43.213 12.174 42.095 12.174H40.457V15.125H42.095ZM49.8134 20.117C49.1374 20.117 48.5264 19.9653 47.9804 19.662C47.4344 19.35 47.0054 18.9167 46.6934 18.362C46.3814 17.7987 46.2254 17.1487 46.2254 16.412C46.2254 15.684 46.3858 15.0383 46.7064 14.475C47.0271 13.9117 47.4648 13.4783 48.0194 13.175C48.5741 12.8717 49.1938 12.72 49.8784 12.72C50.5631 12.72 51.1828 12.8717 51.7374 13.175C52.2921 13.4783 52.7298 13.9117 53.0504 14.475C53.3711 15.0383 53.5314 15.684 53.5314 16.412C53.5314 17.14 53.3668 17.7857 53.0374 18.349C52.7081 18.9123 52.2574 19.35 51.6854 19.662C51.1221 19.9653 50.4981 20.117 49.8134 20.117ZM49.8134 18.83C50.1948 18.83 50.5501 18.739 50.8794 18.557C51.2174 18.375 51.4904 18.102 51.6984 17.738C51.9064 17.374 52.0104 16.932 52.0104 16.412C52.0104 15.892 51.9108 15.4543 51.7114 15.099C51.5121 14.735 51.2478 14.462 50.9184 14.28C50.5891 14.098 50.2338 14.007 49.8524 14.007C49.4711 14.007 49.1158 14.098 48.7864 14.28C48.4658 14.462 48.2101 14.735 48.0194 15.099C47.8288 15.4543 47.7334 15.892 47.7334 16.412C47.7334 17.1833 47.9284 17.7813 48.3184 18.206C48.7171 18.622 49.2154 18.83 49.8134 18.83ZM57.5965 20.117C57.0332 20.117 56.5262 20.0173 56.0755 19.818C55.6335 19.61 55.2825 19.3327 55.0225 18.986C54.7625 18.6307 54.6238 18.2363 54.6065 17.803H56.1405C56.1665 18.1063 56.3095 18.362 56.5695 18.57C56.8382 18.7693 57.1718 18.869 57.5705 18.869C57.9865 18.869 58.3072 18.791 58.5325 18.635C58.7665 18.4703 58.8835 18.2623 58.8835 18.011C58.8835 17.7423 58.7535 17.543 58.4935 17.413C58.2422 17.283 57.8392 17.14 57.2845 16.984C56.7472 16.8367 56.3095 16.6937 55.9715 16.555C55.6335 16.4163 55.3388 16.204 55.0875 15.918C54.8448 15.632 54.7235 15.255 54.7235 14.787C54.7235 14.4057 54.8362 14.059 55.0615 13.747C55.2868 13.4263 55.6075 13.175 56.0235 12.993C56.4482 12.811 56.9335 12.72 57.4795 12.72C58.2942 12.72 58.9485 12.928 59.4425 13.344C59.9452 13.7513 60.2138 14.3103 60.2485 15.021H58.7665C58.7405 14.7003 58.6105 14.4447 58.3765 14.254C58.1425 14.0633 57.8262 13.968 57.4275 13.968C57.0375 13.968 56.7385 14.0417 56.5305 14.189C56.3225 14.3363 56.2185 14.5313 56.2185 14.774C56.2185 14.9647 56.2878 15.125 56.4265 15.255C56.5652 15.385 56.7342 15.489 56.9335 15.567C57.1328 15.6363 57.4275 15.7273 57.8175 15.84C58.3375 15.9787 58.7622 16.1217 59.0915 16.269C59.4295 16.4077 59.7198 16.6157 59.9625 16.893C60.2052 17.1703 60.3308 17.5387 60.3395 17.998C60.3395 18.4053 60.2268 18.7693 60.0015 19.09C59.7762 19.4107 59.4555 19.662 59.0395 19.844C58.6322 20.026 58.1512 20.117 57.5965 20.117ZM62.6948 11.888C62.4262 11.888 62.2008 11.797 62.0188 11.615C61.8368 11.433 61.7458 11.2077 61.7458 10.939C61.7458 10.6703 61.8368 10.445 62.0188 10.263C62.2008 10.081 62.4262 9.99 62.6948 9.99C62.9548 9.99 63.1758 10.081 63.3578 10.263C63.5398 10.445 63.6308 10.6703 63.6308 10.939C63.6308 11.2077 63.5398 11.433 63.3578 11.615C63.1758 11.797 62.9548 11.888 62.6948 11.888ZM63.4228 12.837V20H61.9408V12.837H63.4228ZM67.0976 14.046V18.011C67.0976 18.2797 67.1582 18.4747 67.2796 18.596C67.4096 18.7087 67.6262 18.765 67.9296 18.765H68.8396V20H67.6696C67.0022 20 66.4909 19.844 66.1356 19.532C65.7802 19.22 65.6026 18.713 65.6026 18.011V14.046H64.7576V12.837H65.6026V11.056H67.0976V12.837H68.8396V14.046H67.0976ZM70.9595 11.888C70.6908 11.888 70.4655 11.797 70.2835 11.615C70.1015 11.433 70.0105 11.2077 70.0105 10.939C70.0105 10.6703 70.1015 10.445 70.2835 10.263C70.4655 10.081 70.6908 9.99 70.9595 9.99C71.2195 9.99 71.4405 10.081 71.6225 10.263C71.8045 10.445 71.8955 10.6703 71.8955 10.939C71.8955 11.2077 71.8045 11.433 71.6225 11.615C71.4405 11.797 71.2195 11.888 70.9595 11.888ZM71.6875 12.837V20H70.2055V12.837H71.6875ZM76.4022 18.674L78.4302 12.837H80.0032L77.2732 20H75.5052L72.7882 12.837H74.3742L76.4022 18.674ZM87.6884 16.243C87.6884 16.5117 87.6711 16.7543 87.6364 16.971H82.1634C82.2068 17.543 82.4191 18.0023 82.8004 18.349C83.1818 18.6957 83.6498 18.869 84.2044 18.869C85.0018 18.869 85.5651 18.5353 85.8944 17.868H87.4934C87.2768 18.5267 86.8824 19.0683 86.3104 19.493C85.7471 19.909 85.0451 20.117 84.2044 20.117C83.5198 20.117 82.9044 19.9653 82.3584 19.662C81.8211 19.35 81.3964 18.9167 81.0844 18.362C80.7811 17.7987 80.6294 17.1487 80.6294 16.412C80.6294 15.6753 80.7768 15.0297 81.0714 14.475C81.3748 13.9117 81.7951 13.4783 82.3324 13.175C82.8784 12.8717 83.5024 12.72 84.2044 12.72C84.8804 12.72 85.4828 12.8673 86.0114 13.162C86.5401 13.4567 86.9518 13.8727 87.2464 14.41C87.5411 14.9387 87.6884 15.5497 87.6884 16.243ZM86.1414 15.775C86.1328 15.229 85.9378 14.7913 85.5564 14.462C85.1751 14.1327 84.7028 13.968 84.1394 13.968C83.6281 13.968 83.1904 14.1327 82.8264 14.462C82.4624 14.7827 82.2458 15.2203 82.1764 15.775H86.1414Z" fill="white"/>
<circle cx="16.5" cy="15.5" r="12.5" fill="#D9D9D9"/>
<g clip-path="url(#clip0_3978_15146)">
<path d="M24.873 14.0559V13.8106C24.873 13.4195 24.7185 13.0444 24.4435 12.7679C24.1685 12.4914 23.7955 12.336 23.4065 12.336H19.988C20.056 12.0647 20.2566 11.3806 20.659 10.9205C21.1717 10.3307 21.8005 8.69696 21.4509 7.26374C21.1013 5.83052 20.2168 5.25133 19.7053 5.67245C19.1938 6.09357 19.2161 8.20035 18.0992 9.25373C16.9824 10.3071 15.7529 12.4387 15.2133 12.7407H12.6758V21.1666H14.7945C14.7945 21.1666 15.3071 21.7564 17.0762 21.7564C17.1138 21.7564 16.9789 21.7481 22.4598 21.7481C23.7773 21.7481 24.2195 20.0625 23.4828 19.5588C24.2055 19.1318 24.5011 18.1043 23.7925 17.5735C25.0982 16.7596 24.7885 15.4726 24.1691 15.1577C24.371 15.0507 24.5419 14.893 24.6653 14.7C24.7886 14.5069 24.8602 14.285 24.873 14.0559Z" fill="#2EBD85"/>
<path d="M10.7805 12.6338H8.42722C8.10714 12.6338 7.84766 12.9408 7.84766 13.3196V20.7289C7.84766 21.1077 8.10714 21.4148 8.42722 21.4148H10.7805C11.1006 21.4148 11.3601 21.1077 11.3601 20.7289V13.3196C11.3601 12.9408 11.1006 12.6338 10.7805 12.6338Z" fill="#2EBD85"/>
</g>
<defs>
<clipPath id="clip0_3978_15146">
<rect width="19.3182" height="17.562" fill="white" transform="translate(7.41016 5.16992)"/>
</clipPath>
</defs>
</svg>
