<svg width="28" height="25" viewBox="0 0 28 25" fill="none" xmlns="http://www.w3.org/2000/svg">
<path d="M2.53303 4.80102H9.0396L7.1823 5.67158H3.62574C3.15275 5.67158 2.77339 6.05096 2.77339 6.52394C2.77339 6.93005 3.16428 7.29835 3.62574 7.29835H22.8304V9.33348C22.8304 9.63809 22.5856 9.89474 22.3333 9.96474L20.5583 10.042C19.7813 10.042 18.9505 10.0795 18.3122 10.3781C17.9885 10.5295 17.7101 10.7498 17.514 11.0681C17.3182 11.3859 17.2112 11.7903 17.2112 12.2992V15.1868C17.2112 16.5147 18.2115 17.5219 19.4684 17.5219H22.1219C22.5074 17.5219 22.8304 17.8451 22.8304 18.2305V22.0546C22.8304 22.4401 22.5073 22.7631 22.1219 22.7631H2.53303C2.14751 22.7631 1.82451 22.4399 1.82451 22.0546V5.50954C1.82451 5.12402 2.14765 4.80102 2.53303 4.80102ZM18.6014 5.67157H10.9287L17.1365 2.74204L18.6014 5.67157ZM19.9523 4.80084H22.1217C22.5072 4.80084 22.8302 5.12397 22.8302 5.50936V5.67157H20.4168L19.9523 4.80084ZM19.172 3.17423L18.2765 1.30851L18.2765 1.3085L18.2754 1.30631C18.0872 0.930137 17.6126 0.730015 17.2175 0.926112L12.4108 3.17444H2.53278C1.27938 3.17444 0.197656 4.25616 0.197656 5.50957V22.0546C0.197656 23.3151 1.28653 24.3118 2.53278 24.3118H22.1217C23.3752 24.3118 24.3789 23.308 24.3789 22.0546V18.2305L24.3789 18.2081C24.379 17.9922 24.3791 17.7455 24.3078 17.522H24.541C25.7945 17.522 26.8762 16.4402 26.8762 15.1868V12.2992C26.8762 11.0386 25.7873 10.042 24.541 10.042H24.2974C24.3789 9.79642 24.3789 9.58237 24.3789 9.34019V9.33347V5.50936C24.3789 4.2631 23.382 3.17423 22.1217 3.17423H19.172ZM19.4683 11.6687H24.5411C24.9461 11.6687 25.2497 11.932 25.2497 12.2991V15.1868C25.2497 15.5723 24.9265 15.8953 24.5411 15.8953H19.4683C19.1012 15.8953 18.8379 15.5916 18.8379 15.1868V12.2991C18.8379 12.0991 18.9039 11.9441 19.0086 11.8394C19.1133 11.7348 19.2683 11.6687 19.4683 11.6687Z" fill="#0095C8" stroke="#0095C8" stroke-width="0.3"/>
<path d="M21.0302 14.9467C21.6733 14.9467 22.1948 14.4252 22.1948 13.7821C22.1948 13.1389 21.6732 12.6176 21.0302 12.6176C20.387 12.6176 19.8656 13.1389 19.8656 13.7821C19.8656 14.4252 20.3869 14.9467 21.0302 14.9467Z" fill="#0095C8" stroke="#0095C8" stroke-width="0.3"/>
</svg>
